<?xml version="1.0" encoding="UTF-8"?>
<svg width="80" height="48" viewBox="0 0 80 48" version="1.1" xmlns="http://www.w3.org/2000/svg">
    <g stroke="none" stroke-width="1" fill="none" fill-rule="evenodd">
        <g transform="translate(0.000000, 4.000000)" fill="#252F3E">
            <path d="M24.0732642,20.2884045 L24.0732642,22.1432045 C24.0732642,22.4012045 23.8772642,22.5392045 23.6812642,22.4012045 C22.7052642,21.8392045 21.6052642,21.5632045 20.3972642,21.5632045 C17.5932642,21.5632045 15.8052642,23.3492045 15.8052642,26.0812045 C15.8052642,28.8512045 17.5932642,30.6372045 20.3972642,30.6372045 C21.6052642,30.6372045 22.7052642,30.3612045 23.6812642,29.7992045 C23.8772642,29.6612045 24.0732642,29.7992045 24.0732642,30.0572045 L24.0732642,31.9112045 C24.0732642,32.0492045 24.0052642,32.1872045 23.8772642,32.2562045 C22.7052642,32.9552045 21.3332642,33.3012045 19.8252642,33.3012045 C15.5412642,33.3012045 12.6052642,30.4992045 12.6052642,26.0812045 C12.6052642,21.6632045 15.5412642,18.8612045 19.8252642,18.8612045 C21.3332642,18.8612045 22.7052642,19.2072045 23.8772642,19.9062045 C24.0052642,19.9752045 24.0732642,20.1132045 24.0732642,20.2884045"></path>
            <path d="M31.0851321,30.0182045 C31.0851321,30.1562045 30.9571321,30.2942045 30.8291321,30.2942045 L28.8091321,30.2942045 C28.6811321,30.2942045 28.5531321,30.1562045 28.5531321,30.0182045 L28.5531321,14.6012045 C28.5531321,14.4632045 28.6811321,14.3252045 28.8091321,14.3252045 L30.8291321,14.3252045 C30.9571321,14.3252045 31.0851321,14.4632045 31.0851321,14.6012045 L31.0851321,30.0182045"></path>
            <path d="M39.0572642,30.6372045 C40.5652642,30.6372045 42.0052642,30.3612045 43.0372642,29.9462045 C43.1652642,29.8772045 43.2332642,29.7392045 43.2332642,29.6012045 L43.2332642,27.9532045 C43.2332642,27.6952045 43.0372642,27.5572045 42.8412642,27.6952045 C41.9332642,28.1792045 40.7612642,28.3862045 39.0572642,28.3862045 C36.5972642,28.3862045 35.2932642,26.9092045 35.2932642,24.5892045 C35.2932642,22.2692045 36.5972642,20.7922045 39.0572642,20.7922045 C40.7612642,20.7922045 41.9332642,20.9992045 42.8412642,21.4832045 C43.0372642,21.6212045 43.2332642,21.4832045 43.2332642,21.2252045 L43.2332642,19.5772045 C43.2332642,19.4392045 43.1652642,19.3012045 43.0372642,19.2322045 C42.0052642,18.8172045 40.5652642,18.5412045 39.0572642,18.5412045 C35.0972642,18.5412045 32.0932642,20.7922045 32.0932642,24.5892045 C32.0932642,28.3862045 35.0972642,30.6372045 39.0572642,30.6372045"></path>
            <path d="M53.5012642,20.7922045 C55.8932642,20.7922045 57.0652642,22.2692045 57.0652642,24.5892045 C57.0652642,26.9092045 55.8932642,28.3862045 53.5012642,28.3862045 C51.1092642,28.3862045 49.9372642,26.9092045 49.9372642,24.5892045 C49.9372642,22.2692045 51.1092642,20.7922045 53.5012642,20.7922045 M53.5012642,30.6372045 C57.5292642,30.6372045 60.2652642,28.3862045 60.2652642,24.5892045 C60.2652642,20.7922045 57.5292642,18.5412045 53.5012642,18.5412045 C49.4732642,18.5412045 46.7372642,20.7922045 46.7372642,24.5892045 C46.7372642,28.3862045 49.4732642,30.6372045 53.5012642,30.6372045"></path>
            <path d="M67.8892642,25.7012045 L72.4092642,25.7012045 C72.5372642,25.7012045 72.6652642,25.5632045 72.6652642,25.4252045 L72.6652642,23.7772045 C72.6652642,23.6392045 72.5372642,23.5012045 72.4092642,23.5012045 L67.8892642,23.5012045 L67.8892642,20.5162045 L73.0452642,20.5162045 C73.1732642,20.5162045 73.3012642,20.3782045 73.3012642,20.2402045 L73.3012642,18.5922045 C73.3012642,18.4542045 73.1732642,18.3162045 73.0452642,18.3162045 L65.3612642,18.3162045 C65.2332642,18.3162045 65.1052642,18.4542045 65.1052642,18.5922045 L65.1052642,30.0182045 C65.1052642,30.1562045 65.2332642,30.2942045 65.3612642,30.2942045 L73.1732642,30.2942045 C73.3012642,30.2942045 73.4292642,30.1562045 73.4292642,30.0182045 L73.4292642,28.3702045 C73.4292642,28.2322045 73.3012642,28.0942045 73.1732642,28.0942045 L67.8892642,28.0942045 L67.8892642,25.7012045"></path>
            <path d="M79.9172642,18.3162045 L77.8972642,18.3162045 C77.7692642,18.3162045 77.6412642,18.4542045 77.6412642,18.5922045 L77.6412642,30.0182045 C77.6412642,30.1562045 77.7692642,30.2942045 77.8972642,30.2942045 L79.9172642,30.2942045 C80.0452642,30.2942045 80.1732642,30.1562045 80.1732642,30.0182045 L80.1732642,18.5922045 C80.1732642,18.4542045 80.0452642,18.3162045 79.9172642,18.3162045"></path>
            <path d="M8.7052642,25.7012045 L13.2252642,25.7012045 C13.3532642,25.7012045 13.4812642,25.5632045 13.4812642,25.4252045 L13.4812642,23.7772045 C13.4812642,23.6392045 13.3532642,23.5012045 13.2252642,23.5012045 L8.7052642,23.5012045 L8.7052642,20.5162045 L13.8612642,20.5162045 C13.9892642,20.5162045 14.1172642,20.3782045 14.1172642,20.2402045 L14.1172642,18.5922045 C14.1172642,18.4542045 13.9892642,18.3162045 13.8612642,18.3162045 L6.1772642,18.3162045 C6.0492642,18.3162045 5.9212642,18.4542045 5.9212642,18.5922045 L5.9212642,30.0182045 C5.9212642,30.1562045 6.0492642,30.2942045 6.1772642,30.2942045 L13.9892642,30.2942045 C14.1172642,30.2942045 14.2452642,30.1562045 14.2452642,30.0182045 L14.2452642,28.3702045 C14.2452642,28.2322045 14.1172642,28.0942045 13.9892642,28.0942045 L8.7052642,28.0942045 L8.7052642,25.7012045"></path>
            <path d="M0.3572642,18.5922045 L0.3572642,20.2402045 C0.3572642,20.3782045 0.4852642,20.5162045 0.6132642,20.5162045 L3.8892642,20.5162045 L3.8892642,30.0182045 C3.8892642,30.1562045 4.0172642,30.2942045 4.1452642,30.2942045 L6.1652642,30.2942045 C6.2932642,30.2942045 6.4212642,30.1562045 6.4212642,30.0182045 L6.4212642,20.5162045 L9.6972642,20.5162045 C9.8252642,20.5162045 9.9532642,20.3782045 9.9532642,20.2402045 L9.9532642,18.5922045 C9.9532642,18.4542045 9.8252642,18.3162045 9.6972642,18.3162045 L0.6132642,18.3162045 C0.4852642,18.3162045 0.3572642,18.4542045 0.3572642,18.5922045"></path>
        </g>
        <g transform="translate(27.000000, 4.000000)" fill="#FF9900">
            <path d="M11.7892642,10.8012045 C8.3852642,10.8012045 4.7772642,11.6382045 1.7732642,13.3552045 C1.3932642,13.5622045 1.0812642,13.9772045 1.0812642,14.4612045 L1.0812642,27.3312045 C1.0812642,27.8152045 1.4612642,28.0912045 1.8412642,27.8842045 C4.5812642,26.3042045 8.0052642,25.3362045 11.7892642,25.3362045 C15.5732642,25.3362045 19.1812642,26.3042045 21.7372642,27.8842045 C22.1172642,28.0912045 22.4972642,27.8152045 22.4972642,27.3312045 L22.4972642,14.4612045 C22.4972642,13.9772045 22.1852642,13.5622045 21.8052642,13.3552045 C18.8012642,11.6382045 15.1932642,10.8012045 11.7892642,10.8012045"></path>
            <path d="M11.7892642,7.4812045 C16.8412642,7.4812045 21.1692642,8.7242045 24.5732642,10.9752045 C25.1012642,11.3212045 25.4812642,11.8742045 25.4812642,12.4982045 L25.4812642,30.0182045 C25.4812642,30.7862045 24.7012642,31.2702045 24.0452642,30.9242045 C20.2612642,28.8112045 16.0612642,27.7742045 11.7892642,27.7742045 C7.5172642,27.7742045 3.3172642,28.8112045 -0.4667358,30.9242045 C-1.1227358,31.2702045 -1.9027358,30.7862045 -1.9027358,30.0182045 L-1.9027358,12.4982045 C-1.9027358,11.8742045 -1.5227358,11.3212045 -0.9947358,10.9752045 C2.4092642,8.7242045 6.7372642,7.4812045 11.7892642,7.4812045 M11.7892642,4.8812045 C6.1412642,4.8812045 1.2092642,6.2552045 -2.5507358,8.7932045 C-3.8547358,9.6302045 -4.6347358,11.0382045 -4.6347358,12.4982045 L-4.6347358,30.0182045 C-4.6347358,32.4072045 -2.1067358,33.9872045 0.0492642,32.8472045 C3.5212642,30.9242045 7.5172642,29.9562045 11.7892642,29.9562045 C16.0612642,29.9562045 20.0572642,30.9242045 23.5292642,32.8472045 C25.6852642,33.9872045 28.2132642,32.4072045 28.2132642,30.0182045 L28.2132642,12.4982045 C28.2132642,11.0382045 27.4332642,9.6302045 26.1292642,8.7932045 C22.3692642,6.2552045 17.4372642,4.8812045 11.7892642,4.8812045"></path>
            <path d="M11.7892642,0.0432045 C4.9732642,0.0432045 -0.9947358,1.9012045 -5.5467358,5.0892045 C-7.1932358,6.1952045 -8.2252358,7.9812045 -8.2252358,9.9042045 L-8.2252358,32.6402045 C-8.2252358,35.7592045 -4.8987358,37.8722045 -2.1067358,36.3612045 C2.0292642,34.0412045 6.7372642,32.7982045 11.7892642,32.7982045 C16.8412642,32.7982045 21.5492642,34.0412045 25.6852642,36.3612045 C28.4772642,37.8722045 31.8037642,35.7592045 31.8037642,32.6402045 L31.8037642,9.9042045 C31.8037642,7.9812045 30.7717642,6.1952045 29.1252642,5.0892045 C24.5732642,1.9012045 18.6052642,0.0432045 11.7892642,0.0432045"></path>
        </g>
    </g>
</svg>
