<?xml version="1.0" encoding="UTF-8"?>
<svg width="98px" height="98px" viewBox="0 0 98 98" version="1.1" xmlns="http://www.w3.org/2000/svg">
    <g stroke="none" stroke-width="1" fill="none" fill-rule="evenodd">
        <path d="M27.7,51.6l3.4-4.1l12.2,10.1l-3.4,4.1L27.7,51.6z M23.5,46.5l4.1-3.4l10.1,12.2l-4.1,3.4L23.5,46.5z" fill="#FF9900"/>
        <path d="M49,0C21.9,0,0,21.9,0,49s21.9,49,49,49s49-21.9,49-49S76.1,0,49,0z M77.8,59.9c-0.8,1.1-1.6,2-2.7,2.7 c-1.1,0.7-2.3,1.3-3.7,1.8c-1.4,0.5-2.8,0.9-4.3,1.2c-1.5,0.3-3,0.5-4.6,0.7c-1.6,0.1-3.1,0.2-4.7,0.2c-3.1,0-6.1-0.3-9-0.9 c-2.9-0.6-5.6-1.5-8.1-2.7c-2.5-1.2-4.8-2.7-6.8-4.4c-2-1.7-3.7-3.7-5.1-5.9c-1.4-2.2-2.4-4.6-3.1-7.2c-0.7-2.6-1-5.3-1-8.2 c0-3.1,0.4-6,1.1-8.8c0.7-2.8,1.8-5.4,3.2-7.8c1.4-2.4,3.1-4.5,5.1-6.3c2-1.8,4.2-3.4,6.7-4.6c2.5-1.2,5.1-2.2,8-2.8 c2.8-0.6,5.8-0.9,8.9-0.9c1.6,0,3.2,0.1,4.7,0.2c1.6,0.1,3.1,0.4,4.6,0.7c1.5,0.3,2.9,0.7,4.3,1.2c1.4,0.5,2.6,1.1,3.7,1.8 c1.1,0.7,2,1.6,2.7,2.7c0.7,1.1,1.1,2.3,1.1,3.7c0,1.4-0.4,2.6-1.1,3.7c-0.7,1.1-1.6,2-2.7,2.7c-1.1,0.7-2.3,1.3-3.7,1.8 c-1.4,0.5-2.8,0.9-4.3,1.2c-1.5,0.3-3,0.5-4.6,0.7c-1.6,0.1-3.1,0.2-4.7,0.2c-1.6,0-3.2-0.1-4.7-0.2c-1.6-0.1-3.1-0.4-4.6-0.7 c-1.5-0.3-2.9-0.7-4.3-1.2c-1.4-0.5-2.6-1.1-3.7-1.8c-1.1-0.7-2-1.6-2.7-2.7c-0.7-1.1-1.1-2.3-1.1-3.7c0-1.4,0.4-2.6,1.1-3.7 c0.7-1.1,1.6-2,2.7-2.7c1.1-0.7,2.3-1.3,3.7-1.8c1.4-0.5,2.8-0.9,4.3-1.2c1.5-0.3,3-0.5,4.6-0.7c1.6-0.1,3.1-0.2,4.7-0.2 c3.1,0,6.1,0.3,9,0.9c2.9,0.6,5.6,1.5,8.1,2.7c2.5,1.2,4.8,2.7,6.8,4.4c2,1.7,3.7,3.7,5.1,5.9c1.4,2.2,2.4,4.6,3.1,7.2 c0.7,2.6,1,5.3,1,8.2c0,3.1-0.4,6-1.1,8.8c-0.7,2.8-1.8,5.4-3.2,7.8c-1.4,2.4-3.1,4.5-5.1,6.3c-2,1.8-4.2,3.4-6.7,4.6 c-2.5,1.2-5.1,2.2-8,2.8c-2.8,0.6-5.8,0.9-8.9,0.9c-1.6,0-3.2-0.1-4.7-0.2c-1.6-0.1-3.1-0.4-4.6-0.7c-1.5-0.3-2.9-0.7-4.3-1.2 c-1.4-0.5-2.6-1.1-3.7-1.8c-1.1-0.7-2-1.6-2.7-2.7c-0.7-1.1-1.1-2.3-1.1-3.7c0-1.4,0.4-2.6,1.1-3.7" fill="#FF9900"/>
    </g>
</svg>
