<?xml version="1.0" encoding="UTF-8"?>
<svg width="98px" height="98px" viewBox="0 0 98 98" version="1.1" xmlns="http://www.w3.org/2000/svg">
    <g stroke="none" stroke-width="1" fill="none" fill-rule="evenodd">
        <path d="M49,0C21.9,0,0,21.9,0,49s21.9,49,49,49s49-21.9,49-49S76.1,0,49,0z" fill="#0089D6"/>
        <path d="M77.8,59.9L49,49l28.8,10.9C77.4,55,77.8,52.1,77.8,49C77.8,52.1,77.8,59.9,77.8,59.9z" fill="#0089D6"/>
        <path d="M49,20.2c-8.8,0-16.8,3.6-22.5,9.3L35.3,57L49,20.2z" fill="#0089D6"/>
        <path d="M49,77.8c8.8,0,16.8-3.6,22.5-9.3L62.7,41L49,77.8z" fill="#0089D6"/>
    </g>
</svg>
