<?xml version="1.0" encoding="utf-8"?>
<svg version="1.1" xmlns="http://www.w3.org/2000/svg" viewBox="0 0 150 150">
    <path fill="#EA4335" d="M72.5,99.7c-14.8,0-26.8-12-26.8-26.8s12-26.8,26.8-26.8c7.2,0,13.9,2.8,18.9,7.4l13.1-13.1
        C96.3,32.2,84.9,27.2,72.5,27.2c-25.2,0-45.7,20.5-45.7,45.7s20.5,45.7,45.7,45.7c12.4,0,23.8-5,32.1-13.1l-13.1-13.1
        C86.4,96.9,79.7,99.7,72.5,99.7z"/>
    <path fill="#4285F4" d="M127.3,72.9c0-3.6-0.3-7.1-0.9-10.5H72.5v19.9h30.8c-1.3,7.1-5.3,13.1-11.4,17.1l13.1,13.1
        C115.2,102.3,127.3,86.4,127.3,72.9z"/>
    <path fill="#34A853" d="M72.5,127.3c12.4,0,23.8-5,32.1-13.1l-13.1-13.1c-5,4.6-11.7,7.4-18.9,7.4c-14.8,0-26.8-12-26.8-26.8
        s12-26.8,26.8-26.8c7.2,0,13.9,2.8,18.9,7.4l13.1-13.1c-8.3-8.1-19.7-13.1-32.1-13.1c-25.2,0-45.7,20.5-45.7,45.7
        S47.3,127.3,72.5,127.3z"/>
    <path fill="#FBBC05" d="M45.7,72.9c0-14.8,12-26.8,26.8-26.8c7.2,0,13.9,2.8,18.9,7.4l13.1-13.1C96.3,32.2,84.9,27.2,72.5,27.2
        c-25.2,0-45.7,20.5-45.7,45.7s20.5,45.7,45.7,45.7c12.4,0,23.8-5,32.1-13.1l-13.1-13.1C86.4,96.9,79.7,99.7,72.5,99.7
        C57.7,99.7,45.7,87.7,45.7,72.9z"/>
</svg>
