<?xml version="1.0" encoding="UTF-8"?>
<svg width="98px" height="98px" viewBox="0 0 98 98" version="1.1" xmlns="http://www.w3.org/2000/svg">
    <g stroke="none" stroke-width="1" fill="none" fill-rule="evenodd">
        <path d="M49,0C21.9,0,0,21.9,0,49s21.9,49,49,49s49-21.9,49-49S76.1,0,49,0z" fill="#4285F4"/>
        <path d="M77.8,49c0-3.1-0.4-6-1.1-8.8L49,49l27.8,8.8C77.4,55,77.8,52.1,77.8,49z" fill="#EA4335"/>
        <path d="M49,20.2c-8.8,0-16.8,3.6-22.5,9.3l8.8,27.8L49,20.2z" fill="#FBBC05"/>
        <path d="M49,77.8c8.8,0,16.8-3.6,22.5-9.3l-8.8-27.8L49,77.8z" fill="#34A853"/>
    </g>
</svg>
