<?xml version="1.0" encoding="UTF-8"?>
<svg width="98px" height="98px" viewBox="0 0 98 98" version="1.1" xmlns="http://www.w3.org/2000/svg">
    <g stroke="none" stroke-width="1" fill="none" fill-rule="evenodd">
        <path d="M48.9,3C23.5,3,3,23.5,3,49c0,20.4,13.2,37.6,31.5,43.7c2.3,0.4,3.1-1,3.1-2.2c0-1.1,0-4.7-0.1-8.5 c-12.8,2.8-15.5-5.4-15.5-5.4c-2.1-5.3-5.1-6.7-5.1-6.7c-4.2-2.9,0.3-2.8,0.3-2.8c4.6,0.3,7,4.7,7,4.7c4.1,7,10.7,5,13.3,3.8 c0.4-3,1.6-5,2.9-6.1c-10.2-1.2-21-5.1-21-22.7c0-5,1.8-9.1,4.7-12.3c-0.5-1.2-2-5.8,0.4-12.1c0,0,3.8-1.2,12.5,4.7 c3.6-1,7.5-1.5,11.3-1.5c3.8,0,7.7,0.5,11.3,1.5c8.7-5.9,12.5-4.7,12.5-4.7c2.5,6.3,0.9,10.9,0.4,12.1c2.9,3.2,4.7,7.3,4.7,12.3 c0,17.6-10.7,21.5-21,22.6c1.6,1.4,3.1,4.1,3.1,8.3c0,6-0.1,10.8-0.1,12.3c0,1.2,0.8,2.6,3.1,2.2C81.8,86.6,95,69.4,95,49 C95,23.5,74.5,3,48.9,3z" fill="#24292F"/>
    </g>
</svg>
