<?xml version="1.0" encoding="UTF-8"?>
<svg width="98px" height="98px" viewBox="0 0 98 98" version="1.1" xmlns="http://www.w3.org/2000/svg">
    <g stroke="none" stroke-width="1" fill="none" fill-rule="evenodd">
        <path d="M93.5,47.8L54.9,9.2L51,5.3c-2.1-2.1-5.5-2.1-7.6,0L4.9,43.9c-2.1,2.1-2.1,5.5,0,7.6l38.6,38.6c2.1,2.1,5.5,2.1,7.6,0 l42.5-42.5C95.6,53.3,95.6,49.9,93.5,47.8z" fill="#2684FF"/>
        <path d="M47.2,61.7L28.5,43c-2.1-2.1-2.1-5.5,0-7.6l18.7-18.7c2.1-2.1,5.5-2.1,7.6,0l18.7,18.7c2.1,2.1,2.1,5.5,0,7.6L54.8,61.7 C52.7,63.8,49.3,63.8,47.2,61.7z" fill="url(#jira_linear)"/>
        <defs>
            <linearGradient id="jira_linear" x1="28.5" y1="47.2" x2="73.5" y2="47.2" gradientUnits="userSpaceOnUse">
                <stop offset="0" stop-color="#0052CC"/>
                <stop offset="1" stop-color="#2684FF"/>
            </linearGradient>
        </defs>
    </g>
</svg>
