<?xml version="1.0" encoding="utf-8"?>
<svg version="1.1" xmlns="http://www.w3.org/2000/svg" viewBox="0 0 150 150">
    <path fill="#0072C6" d="M120,30H70c-5.5,0-10,4.5-10,10v70c0,5.5,4.5,10,10,10h50c5.5,0,10-4.5,10-10V40C130,34.5,125.5,30,120,30z
         M120,110H70V40h50V110z"/>
    <path fill="#0072C6" d="M60,52.5V40H30c-5.5,0-10,4.5-10,10v50c0,5.5,4.5,10,10,10h30V97.5L45,85l15-12.5V60L45,47.5L60,52.5z"/>
    <rect x="80" y="50" fill="#0072C6" width="30" height="10"/>
    <rect x="80" y="70" fill="#0072C6" width="30" height="10"/>
    <rect x="80" y="90" fill="#0072C6" width="30" height="10"/>
</svg>
