<?xml version="1.0" encoding="UTF-8"?>
<svg width="98px" height="98px" viewBox="0 0 98 98" version="1.1" xmlns="http://www.w3.org/2000/svg">
    <g stroke="none" stroke-width="1" fill="none" fill-rule="evenodd">
        <path d="M64,20.2v57.6c0,1.8-1.4,3.2-3.2,3.2H3.2C1.4,81,0,79.6,0,77.8V20.2C0,18.4,1.4,17,3.2,17h57.6 C62.6,17,64,18.4,64,20.2z" fill="#0078D4"/>
        <path d="M64,20.2v57.6c0,1.8-1.4,3.2-3.2,3.2H32V17h28.8C62.6,17,64,18.4,64,20.2z" fill="#0078D4"/>
        <path d="M98,49c0,27.1-21.9,49-49,49S0,76.1,0,49S21.9,0,49,0S98,21.9,98,49z M32,28.5v41l12.2-12.2L56.4,69.5 l9.8-9.8L53.9,47.5L66.2,35.2L32,28.5z" fill="#0078D4"/>
    </g>
</svg>
