<?xml version="1.0" encoding="utf-8"?>
<svg version="1.1" xmlns="http://www.w3.org/2000/svg" viewBox="0 0 150 150">
    <path fill="#E01E5A" d="M62.5,102.5c0,6.9-5.6,12.5-12.5,12.5s-12.5-5.6-12.5-12.5s5.6-12.5,12.5-12.5h12.5V102.5z"/>
    <path fill="#E01E5A" d="M67.5,102.5c0-6.9,5.6-12.5,12.5-12.5s12.5,5.6,12.5,12.5v31.25c0,6.9-5.6,12.5-12.5,12.5
        s-12.5-5.6-12.5-12.5V102.5z"/>
    <path fill="#36C5F0" d="M47.5,47.5c-6.9,0-12.5-5.6-12.5-12.5s5.6-12.5,12.5-12.5s12.5,5.6,12.5,12.5v12.5H47.5z"/>
    <path fill="#36C5F0" d="M47.5,52.5c6.9,0,12.5,5.6,12.5,12.5s-5.6,12.5-12.5,12.5H16.25c-6.9,0-12.5-5.6-12.5-12.5
        s5.6-12.5,12.5-12.5H47.5z"/>
    <path fill="#2EB67D" d="M102.5,47.5c0-6.9,5.6-12.5,12.5-12.5s12.5,5.6,12.5,12.5s-5.6,12.5-12.5,12.5h-12.5V47.5z"/>
    <path fill="#2EB67D" d="M97.5,47.5c0,6.9-5.6,12.5-12.5,12.5s-12.5-5.6-12.5-12.5V16.25c0-6.9,5.6-12.5,12.5-12.5
        s12.5,5.6,12.5,12.5V47.5z"/>
    <path fill="#ECB22E" d="M102.5,87.5c6.9,0,12.5,5.6,12.5,12.5s-5.6,12.5-12.5,12.5s-12.5-5.6-12.5-12.5v-12.5H102.5z"/>
    <path fill="#ECB22E" d="M102.5,82.5c-6.9,0-12.5-5.6-12.5-12.5s5.6-12.5,12.5-12.5h31.25c6.9,0,12.5,5.6,12.5,12.5
        s-5.6,12.5-12.5,12.5H102.5z"/>
</svg>
