<?xml version="1.0" encoding="utf-8"?>
<svg version="1.1" xmlns="http://www.w3.org/2000/svg" viewBox="0 0 150 150">
    <path fill="#5059C9" d="M110,40H85c-2.8,0-5,2.2-5,5v15h35V45C115,42.2,112.8,40,110,40z"/>
    <path fill="#7B83EB" d="M115,60H80v35c0,2.8,2.2,5,5,5h25c2.8,0,5-2.2,5-5V60z"/>
    <circle fill="#5059C9" cx="97.5" cy="77.5" r="12.5"/>
    <path fill="#7B83EB" d="M65,30H40c-2.8,0-5,2.2-5,5v15h35V35C70,32.2,67.8,30,65,30z"/>
    <path fill="#5059C9" d="M70,50H35v45c0,2.8,2.2,5,5,5h25c2.8,0,5-2.2,5-5V50z"/>
    <circle fill="#7B83EB" cx="52.5" cy="72.5" r="12.5"/>
</svg>
