<?xml version="1.0" encoding="UTF-8"?>
<svg width="98px" height="98px" viewBox="0 0 98 98" version="1.1" xmlns="http://www.w3.org/2000/svg">
    <g stroke="none" stroke-width="1" fill="none" fill-rule="evenodd">
        <path d="M20,57.5 C20,62.2 16.2,66 11.5,66 C6.8,66 3,62.2 3,57.5 C3,52.8 6.8,49 11.5,49 L20,49 L20,57.5 Z" fill="#E01E5A"></path>
        <path d="M24.5,57.5 C24.5,52.8 28.3,49 33,49 C37.7,49 41.5,52.8 41.5,57.5 L41.5,84 C41.5,88.7 37.7,92.5 33,92.5 C28.3,92.5 24.5,88.7 24.5,84 L24.5,57.5 Z" fill="#E01E5A"></path>
        <path d="M33,20 C28.3,20 24.5,16.2 24.5,11.5 C24.5,6.8 28.3,3 33,3 C37.7,3 41.5,6.8 41.5,11.5 L41.5,20 L33,20 Z" fill="#36C5F0"></path>
        <path d="M33,24.5 C37.7,24.5 41.5,28.3 41.5,33 C41.5,37.7 37.7,41.5 33,41.5 L6.5,41.5 C1.8,41.5 -2,37.7 -2,33 C-2,28.3 1.8,24.5 6.5,24.5 L33,24.5 Z" fill="#36C5F0"></path>
        <path d="M78,33 C78,28.3 81.8,24.5 86.5,24.5 C91.2,24.5 95,28.3 95,33 C95,37.7 91.2,41.5 86.5,41.5 L78,41.5 L78,33 Z" fill="#2EB67D"></path>
        <path d="M73.5,33 C73.5,37.7 69.7,41.5 65,41.5 C60.3,41.5 56.5,37.7 56.5,33 L56.5,6.5 C56.5,1.8 60.3,-2 65,-2 C69.7,-2 73.5,1.8 73.5,6.5 L73.5,33 Z" fill="#2EB67D"></path>
        <path d="M65,78 C69.7,78 73.5,81.8 73.5,86.5 C73.5,91.2 69.7,95 65,95 C60.3,95 56.5,91.2 56.5,86.5 L56.5,78 L65,78 Z" fill="#ECB22E"></path>
        <path d="M65,73.5 C60.3,73.5 56.5,69.7 56.5,65 C56.5,60.3 60.3,56.5 65,56.5 L91.5,56.5 C96.2,56.5 100,60.3 100,65 C100,69.7 96.2,73.5 91.5,73.5 L65,73.5 Z" fill="#ECB22E"></path>
    </g>
</svg>
