<?xml version="1.0" encoding="UTF-8"?>
<svg width="98px" height="98px" viewBox="0 0 98 98" version="1.1" xmlns="http://www.w3.org/2000/svg">
    <g stroke="none" stroke-width="1" fill="none" fill-rule="evenodd">
        <path d="M95.7,41.1v28.2c0,5.8-4.7,10.5-10.5,10.5H53.4c-5.8,0-10.5-4.7-10.5-10.5V41.1c0-5.8,4.7-10.5,10.5-10.5h31.8 C91,30.6,95.7,35.3,95.7,41.1z" fill="#5059C9"/>
        <path d="M85.2,30.6H53.4c-5.8,0-10.5,4.7-10.5,10.5v28.2c0,5.8,4.7,10.5,10.5,10.5h31.8c5.8,0,10.5-4.7,10.5-10.5V41.1 C95.7,35.3,91,30.6,85.2,30.6z M69.3,65.8c-8.5,0-15.4-6.9-15.4-15.4s6.9-15.4,15.4-15.4s15.4,6.9,15.4,15.4S77.8,65.8,69.3,65.8z" fill="#7B83EB"/>
        <path d="M69.3,35c-8.5,0-15.4,6.9-15.4,15.4s6.9,15.4,15.4,15.4s15.4-6.9,15.4-15.4S77.8,35,69.3,35z M69.3,57.8 c-4.1,0-7.4-3.3-7.4-7.4s3.3-7.4,7.4-7.4s7.4,3.3,7.4,7.4S73.4,57.8,69.3,57.8z" fill="#FFFFFF"/>
        <path d="M44.6,18.3v28.2c0,5.8-4.7,10.5-10.5,10.5H2.3c-5.8,0-10.5-4.7-10.5-10.5V18.3c0-5.8,4.7-10.5,10.5-10.5h31.8 C39.9,7.8,44.6,12.5,44.6,18.3z" fill="#7B83EB"/>
        <path d="M34.1,7.8H2.3c-5.8,0-10.5,4.7-10.5,10.5v28.2c0,5.8,4.7,10.5,10.5,10.5h31.8c5.8,0,10.5-4.7,10.5-10.5V18.3 C44.6,12.5,39.9,7.8,34.1,7.8z M18.2,43c-8.5,0-15.4-6.9-15.4-15.4s6.9-15.4,15.4-15.4s15.4,6.9,15.4,15.4S26.7,43,18.2,43z" fill="#5059C9"/>
    </g>
</svg>
